# xmcd
# 
# Track frame offsets:
#     187
#     56767
#     125610
#     194055
#     248047
# 
# Disc length: 3805
# 
# Revision: 1
# Processed by: cddbd v1.5.2PL0 Copyright (c) Steve Scherf et al.
# Submitted via: BonkEnc v1.0.8
# 
DISCID=490edb05
DTITLE=菊地雅章 - 六大 水
DYEAR=1988
DGENRE=Contemporary Jazz
TTITLE0=Moon Spanish
TTITLE1=Spectrum
TTITLE2=Aurola
TTITLE3=Blue Spring
TTITLE4=Water Song
EXTD=YEAR: 1988
EXTT0=
EXTT1=
EXTT2=
EXTT3=
EXTT4=
PLAYORDER=
